PathFileType	4	(X/Y/Z)	C:/Users/beibeiliu/ov580/test_trc/User2\sequence.10_training_dense_left.trc
DataRate	CameraRate	NumFrames	NumMarkers	Units	OrigDataRate	OrigDataStartFrame	OrigNumFrames
120	120	18	19	mm	120	243	484
Frame#	Time	ThumbCMC			ThumbMCP			ThumbIP			ThumbTip			IndexMCP			IndexPIP			IndexTip			MiddleMCP			MiddlePIP			MiddleTip			RingMCP			RingPIP			RingTip			PinkyMCP			PinkyPIP			PinkyTip			BackHand1			BackHand2			BackHand3	
		X0	Y0	Z0	X1	Y1	Z1	X2	Y2	Z2	X3	Y3	Z3	X4	Y4	Z4	X5	Y5	Z5	X6	Y6	Z6	X7	Y7	Z7	X8	Y8	Z8	X9	Y9	Z9	X10	Y10	Z10	X11	Y11	Z11	X12	Y12	Z12	X13	Y13	Z13	X14	Y14	Z14	X15	Y15	Z15	X16	Y16	Z16	X17	Y17	Z17	X18	Y18	Z18	
242	2.01667	-163.144	-1.45362	122.97	-140.459	-9.89604	93.6715	-122.96	-21.2969	63.1446	-119.342	-45.8642	44.7145	-209.035	-21.0752	54.8085	-216.451	-24.0722	29.6827	-224.2	-28.4524	4.14997	-195.067	-57.256	49.1342	-165.202	-60.6458	26.5717	-131.012	-58.4674	39.7939	-182.839	-78.2703	58.7899	-151.748	-73.2071	45.116	-124.912	-61.4545	68.1795	-175.665	-90.2376	74.2054	-145.236	-83.4228	61.9013	-125.332	-68.6881	85.3163	-203.679	-59.4548	118.809	-200.59	-53.7806	152.811	-204.818	-23.1022	125.08	
243	2.025	-150.477	-3.61994	127.433	-127.222	-11.7703	97.5523	-118.166	-28.4696	66.4885	-118.722	-48.4495	46.9062	-198.978	-6.57114	58.9714	-205.49	-5.06681	33.7717	-213.258	-2.06036	6.20385	-194.153	-39.771	48.7746	-168.885	-54.4199	26.8349	-133.043	-61.8599	42.3636	-189.95	-63.7141	59.292	-162.791	-68.8802	41.7288	-130.409	-67.7832	66.3369	-186.302	-79.3889	70.0443	-156.341	-84.2005	58.1937	-134.909	-76.126	80.3931	-204.911	-47.016	115.124	-202.313	-42.7165	150.714	-196.479	-15.825	129.966	
244	2.03333	-140.437	-9.00263	129.569	-117.926	-16.756	101.051	-113.347	-31.6462	69.5678	-121.398	-50.2961	43.8835	-184.457	7.97238	65.385	-191.46	13.3001	39.8669	-195.155	21.4369	11.8923	-190.627	-22.4803	50.1866	-170.862	-43.3624	28.2021	-138.081	-60.9482	42.1707	-192.583	-45.9429	56.3095	-165.516	-61.1844	40.6417	-139.624	-71.2228	63.1849	-196.577	-65.316	70.484	-170.936	-78.1337	53.6842	-144.15	-79.3999	74.768	-205.426	-37.5228	120.058	-202.453	-34.4434	150.316	-182.241	-3.8558	134.646	
245	2.04167	-132.12	-11.454	135.271	-113.881	-21.7799	98.0892	-109.896	-34.3061	69.138	-121.427	-49.3288	47.504	-173.616	17.5694	67.013	-176.868	26.8176	41.7857	-180.242	36.995	15.9959	-184.098	-9.3598	55.6699	-169.255	-32.1795	29.23	-142.634	-58.9938	43.7965	-191.879	-31.1386	55.7175	-171.479	-53.0182	39.7555	-149.112	-67.9032	59.6648	-202.547	-52.6883	70.5895	-177.873	-65.2429	51.2229	-152.516	-76.1556	70.6119	-202.983	-24.2936	118.234	-198.459	-26.789	152.422	-174.728	0.897209	136.941	
246	2.05	-125.818	-14.5594	133.649	-112.521	-25.7239	98.6688	-110.6	-37.1766	70.7224	-123.029	-48.7553	46.6147	-163.695	23.2909	67.8174	-165.021	35.2053	43.3526	-170.172	42.4905	18.0749	-177.861	-1.56848	54.9302	-162.565	-27.1021	29.149	-141.709	-53.5933	42.7767	-193.976	-23.9345	57.3841	-170.294	-43.0872	38.8909	-152.8	-64.4657	62.1782	-200.274	-39.7011	67.2313	-177.555	-58.4882	50.6064	-160.777	-70.8949	68.74	-197.742	-13.7393	118.404	-194.812	-21.8313	154.913	-168.891	3.43638	134.707	
247	2.05833	-126.346	-18.2377	133.405	-113.185	-31.3012	102.901	-112.07	-39.0406	66.3006	-123.999	-48.9361	46.2368	-153.073	26.6826	70.8701	-155.282	37.0696	46.1866	-157.082	47.7727	21.4046	-172.493	1.40473	54.3468	-160.353	-22.2743	29.45	-142.939	-56.1078	46.7315	-190.545	-17.3282	57.2437	-174.961	-42.6833	38.5367	-155.842	-63.2217	63.0842	-202.391	-34.0302	68.1192	-180.636	-53.1924	50.2725	-161.225	-68.5661	69.4516	-198.41	-10.9838	118.752	-194.028	-16.1874	152.882	-165.788	2.94489	139.591	
248	2.06667	-123.308	-20.8398	132.305	-112.05	-34.327	101.641	-111.233	-44.5251	68.3883	-127.868	-52.7196	43.6561	-153.028	21.1598	70.2967	-151.562	34.0348	44.0532	-156.33	43.7092	18.4901	-174.353	-1.19458	54.194	-158.801	-26.7033	28.2386	-145.732	-57.7786	43.837	-188.941	-17.3595	56.9963	-173.629	-41.2449	38.5697	-156.577	-62.7737	60.0194	-203.382	-33.1795	69.1215	-184.765	-55.3922	50.9372	-166.071	-73.7534	73.5647	-194.28	-8.85958	117.97	-191.969	-12.9254	153.366	-162.362	0.827963	137.341	
249	2.075	-124.101	-23.2643	128.388	-113.229	-39.2063	98.2539	-115.308	-51.1194	62.5283	-129.449	-61.4326	42.2442	-153.555	18.1415	63.2851	-152.58	25.7077	40.9867	-153.967	35.5397	15.0044	-174.311	-6.58769	53.3602	-166.372	-33.7427	28.6464	-152.722	-67.0606	47.967	-192.112	-23.2866	55.806	-177.754	-50.8395	39.5271	-160.25	-69.9135	66.6446	-205.446	-35.9723	67.6996	-191.091	-61.477	51.4556	-171.544	-78.187	73.4946	-199.012	-9.89262	118.489	-190.672	-14.7981	152.011	-159.7	2.01663	136.132	
250	2.08333	-129.697	-27.6391	125.475	-115.63	-47.0108	94.7496	-121.036	-61.5774	62.258	-134.959	-72.4233	45.2348	-153.345	9.46812	59.3868	-159.222	14.3193	34.504	-161.928	24.0088	3.82262	-179.436	-18.0827	45.9803	-168.485	-47.1479	28.656	-157.06	-76.7978	49.4284	-194.144	-32.7252	55.3861	-186.191	-63.1163	42.5688	-165.671	-78.7697	66.4246	-208.987	-43.9604	70.6479	-194.717	-71.863	56.019	-175.518	-84.1702	77.3981	-196.017	-11.5895	116.974	-190.759	-14.851	150.504	-162.544	-2.39236	131.025	
251	2.09167	-126.551	-31.8731	123.549	-118.035	-55.8174	95.9141	-125.828	-75.0117	64.8601	-145.054	-85.9365	47.9848	-160.27	-4.72752	50.3844	-163.19	-2.41123	24.4872	-166.661	1.06931	-0.819829	-181.537	-31.7624	45.0324	-176.382	-63.7588	30.8975	-159.803	-89.3873	55.6339	-199.629	-48.3881	53.1064	-187.552	-76.6987	45.4881	-168.651	-91.1551	74.0396	-211.782	-56.3096	74.2593	-197.463	-85.2867	62.3202	-173.821	-91.1338	88.0146	-197.605	-16.3589	111.578	-191.993	-14.2006	147.98	-166.555	-4.3477	124.12	
252	2.1	-130.623	-37.0222	121.192	-120.693	-65.553	91.7926	-127.387	-89.1738	69.597	-147.385	-105.46	54.9323	-162.079	-20.6262	48.0757	-169.653	-23.6367	17.5052	-174.497	-23.314	-8.8483	-187.553	-49.8284	44.0651	-178.393	-82.2008	35.2058	-158.301	-102.729	67.2472	-201.993	-63.8023	57.2848	-191.638	-92.0276	52.6442	-171.909	-104.943	80.6493	-217.195	-74.5211	77.353	-193.634	-99.6351	74.3338	-172.683	-96.8294	97.0462	-198.66	-24.6265	110.853	-192.391	-15.2918	143.273	-165.477	-8.50137	117.627	
253	2.10833	-126.262	-41.1059	120.482	-121.822	-73.6581	99.4311	-127.007	-102.887	77.1164	-146.962	-121.649	65.4459	-167.435	-37.3062	43.1707	-167.027	-42.1594	18.9482	-171.291	-46.7612	-8.28358	-186.611	-66.6406	45.9639	-177.639	-98.8676	41.3306	-159.068	-112.842	75.5879	-202.48	-82.0338	61.2034	-191.001	-109.948	63.7431	-166.954	-114.715	93.1537	-214.799	-86.9846	83.2445	-191.241	-112.489	85.9326	-170.608	-108.969	107.319	-202.065	-32.1451	105.625	-195.648	-18.9313	137.035	-163.695	-15.8646	110.964	
254	2.11667	-129.374	-44.2555	117.617	-116.164	-78.7588	102.485	-122.037	-108.15	86.6824	-144.839	-128.043	75.3273	-159.909	-46.5845	44.6348	-161.679	-54.9763	17.8972	-166.783	-64.4356	-10.2377	-184.123	-74.1678	51.5805	-171.705	-110.301	48.1951	-150.074	-117.728	86.3611	-197.385	-89.3218	65.5901	-180.01	-119.494	69.8426	-160.854	-120.612	100.276	-210.327	-96.0708	88.2232	-186.173	-118.798	90.7622	-163.49	-110.47	113.521	-198.824	-38.1405	104.277	-193.062	-23.62	135.532	-163.731	-18.9699	111.44	
255	2.125	-127.286	-43.6937	122.079	-111.397	-75.0537	109.125	-112.524	-106.838	91.2545	-134.871	-126.439	79.9199	-153.094	-47.1547	47.0455	-154.686	-58.0367	18.0813	-156.69	-67.6028	-4.96323	-169.555	-77.3648	49.1594	-161.564	-111.209	51.0033	-143.978	-117.742	88.6018	-185.124	-90.75	64.2102	-170.807	-122.176	71.9729	-149.145	-120.459	101.849	-199.198	-99.7851	83.188	-179.582	-123.262	92.5715	-158.235	-111.974	118.216	-194.334	-41.9317	104.207	-192.143	-25.4917	135.115	-164.742	-20.0726	113.949	
256	2.13333	-120.706	-38.3574	129.947	-102.659	-70.1699	113.025	-105.929	-98.5701	92.6596	-120.835	-120.975	76.6114	-140.085	-40.5859	51.3377	-136.418	-48.6641	19.1547	-138.258	-59.3259	-5.82685	-161.787	-72.6529	50.9316	-146.042	-106.336	48.9602	-131.997	-113.901	86.1892	-171.328	-89.5568	60.0177	-157.679	-116.708	66.1361	-141.448	-116.786	98.312	-189.811	-95.7331	78.4999	-164.758	-117.548	83.326	-151.125	-110.13	111.241	-189.44	-42.7656	103.205	-191.283	-26.0559	134.811	-162.48	-18.9651	116.581	
257	2.14167	-115.898	-33.6759	135.991	-95.3271	-62	115.513	-94.8821	-87.6657	95.6057	-107.676	-108.744	77.6457	-129.221	-28.6501	50.9015	-127.025	-36.6746	23.2172	-123.479	-43.6491	-0.316395	-143.914	-60.3165	47.6376	-130.05	-97.5193	49.0392	-118.504	-104.821	84.4164	-162.155	-76.5394	57.9766	-145.263	-106.263	59.3499	-129.698	-108.212	91.9668	-178.541	-87.8311	72.4615	-154.22	-110.757	77.2576	-144.107	-107.437	107.596	-182.156	-39.4441	101.451	-189.799	-25.8017	135.439	-156.891	-17.8106	115.41	
258	2.15	-115.399	-30.3697	138.752	-94.1223	-54.5371	122.777	-83.3121	-79.9192	92.8339	-95.1813	-96.8249	74.2311	-123.548	-18.5852	57.2695	-118.211	-20.3279	30.1748	-112.117	-24.2664	4.34236	-139.454	-49.9873	48.8385	-117.656	-82.8767	45.7683	-114.593	-97.7514	83.3275	-151.438	-67.6241	54.0594	-132.147	-93.9119	55.5825	-124.91	-101.376	92.6905	-168.664	-76.5893	65.5731	-146.569	-103.189	69.5955	-139.33	-100.502	97.4202	-180.396	-33.5718	104.308	-184.388	-23.0782	135.352	-153.491	-12.6777	121.958	
259	2.15833	-112.081	-27.5455	138.526	-90.075	-49.9414	119.435	-83.7272	-71.1637	88.8288	-89.618	-89.5855	68.9297	-122.745	-10.4493	60.3571	-111.533	-7.30389	35.538	-106.403	-9.65154	7.80264	-135.559	-39.6236	49.18	-117.917	-70.2991	40.7212	-108.213	-90.1035	79.1252	-150.961	-59.4635	52.1662	-133.322	-83.5384	50.4143	-121.097	-92.2629	87.1907	-168.658	-65.6004	67.3621	-147.448	-93.7392	62.6513	-135.131	-92.9826	93.7462	-180.92	-28.4085	106.469	-183.603	-21.9979	138.316	-149.171	-5.08552	124.491	
